<svg xmlns="http://www.w3.org/2000/svg" xmlns:xlink="http://www.w3.org/1999/xlink" zoomAndPan="magnify" preserveAspectRatio="xMidYMid meet" version="1.0" viewBox="103.69 158.19 189.17 54.92"><defs><g/><clipPath id="ab4441a2f0"><path d="M 145.367188 158.191406 L 187.367188 158.191406 L 187.367188 199.441406 L 145.367188 199.441406 Z M 145.367188 158.191406 " clip-rule="nonzero"/></clipPath></defs><g fill="#06b7d5" fill-opacity="1"><g transform="translate(99.536922, 197.145119)"><g><path d="M 4.15625 0 L 4.15625 -37.828125 L 27.609375 -37.828125 L 27.609375 -32.921875 L 9.859375 -32.921875 L 9.859375 -21.390625 L 25.9375 -21.390625 L 25.9375 -16.5 L 9.859375 -16.5 L 9.859375 0 Z M 4.15625 0 "/></g></g></g><g fill="#06b7d5" fill-opacity="1"><g transform="translate(145.615851, 197.145119)"><g><path d="M 37.015625 -18.921875 C 37.015625 -14.878906 36.273438 -11.40625 34.796875 -8.5 C 33.316406 -5.601562 31.289062 -3.375 28.71875 -1.8125 C 26.15625 -0.257812 23.242188 0.515625 19.984375 0.515625 C 16.710938 0.515625 13.789062 -0.257812 11.21875 -1.8125 C 8.65625 -3.375 6.632812 -5.609375 5.15625 -8.515625 C 3.675781 -11.421875 2.9375 -14.890625 2.9375 -18.921875 C 2.9375 -22.953125 3.675781 -26.414062 5.15625 -29.3125 C 6.632812 -32.21875 8.65625 -34.445312 11.21875 -36 C 13.789062 -37.5625 16.710938 -38.34375 19.984375 -38.34375 C 23.242188 -38.34375 26.15625 -37.5625 28.71875 -36 C 31.289062 -34.445312 33.316406 -32.21875 34.796875 -29.3125 C 36.273438 -26.414062 37.015625 -22.953125 37.015625 -18.921875 Z M 31.359375 -18.921875 C 31.359375 -21.992188 30.863281 -24.585938 29.875 -26.703125 C 28.882812 -28.816406 27.53125 -30.414062 25.8125 -31.5 C 24.09375 -32.59375 22.148438 -33.140625 19.984375 -33.140625 C 17.804688 -33.140625 15.859375 -32.59375 14.140625 -31.5 C 12.429688 -30.414062 11.082031 -28.816406 10.09375 -26.703125 C 9.101562 -24.585938 8.609375 -21.992188 8.609375 -18.921875 C 8.609375 -15.835938 9.101562 -13.238281 10.09375 -11.125 C 11.082031 -9.019531 12.429688 -7.421875 14.140625 -6.328125 C 15.859375 -5.234375 17.804688 -4.6875 19.984375 -4.6875 C 22.148438 -4.6875 24.09375 -5.234375 25.8125 -6.328125 C 27.53125 -7.421875 28.882812 -9.019531 29.875 -11.125 C 30.863281 -13.238281 31.359375 -15.835938 31.359375 -18.921875 Z M 31.359375 -18.921875 "/></g></g></g><g fill="#06b7d5" fill-opacity="1"><g transform="translate(201.16917, 197.145119)"><g><path d="M 4.15625 0 L 4.15625 -37.828125 L 17.640625 -37.828125 C 20.566406 -37.828125 23 -37.320312 24.9375 -36.3125 C 26.882812 -35.300781 28.335938 -33.90625 29.296875 -32.125 C 30.253906 -30.351562 30.734375 -28.300781 30.734375 -25.96875 C 30.734375 -23.65625 30.25 -21.617188 29.28125 -19.859375 C 28.320312 -18.109375 26.867188 -16.742188 24.921875 -15.765625 C 22.984375 -14.796875 20.550781 -14.3125 17.625 -14.3125 L 7.40625 -14.3125 L 7.40625 -19.234375 L 17.109375 -19.234375 C 18.953125 -19.234375 20.453125 -19.492188 21.609375 -20.015625 C 22.773438 -20.546875 23.628906 -21.316406 24.171875 -22.328125 C 24.710938 -23.335938 24.984375 -24.550781 24.984375 -25.96875 C 24.984375 -27.394531 24.707031 -28.628906 24.15625 -29.671875 C 23.613281 -30.722656 22.757812 -31.53125 21.59375 -32.09375 C 20.4375 -32.65625 18.914062 -32.9375 17.03125 -32.9375 L 9.859375 -32.9375 L 9.859375 0 Z M 22.828125 -17.0625 L 32.171875 0 L 25.671875 0 L 16.515625 -17.0625 Z M 22.828125 -17.0625 "/></g></g></g><g fill="#06b7d5" fill-opacity="1"><g transform="translate(250.313897, 197.145119)"><g><path d="M 4.15625 -37.828125 L 11.078125 -37.828125 L 23.125 -8.421875 L 23.5625 -8.421875 L 35.609375 -37.828125 L 42.546875 -37.828125 L 42.546875 0 L 37.109375 0 L 37.109375 -27.375 L 36.765625 -27.375 L 25.59375 -0.0625 L 21.09375 -0.0625 L 9.9375 -27.390625 L 9.59375 -27.390625 L 9.59375 0 L 4.15625 0 Z M 4.15625 -37.828125 "/></g></g></g><g clip-path="url(#ab4441a2f0)"><path fill="#06b7d5" d="M 179.226562 164.859375 C 176.066406 162.1875 172.421875 160.628906 168.292969 160.183594 C 165.929688 159.929688 163.46875 160.125 161.136719 160.746094 C 155.203125 162.320312 150.316406 166.492188 148.09375 172.25 C 145.757812 178.3125 146.871094 185.078125 150.921875 190.140625 C 154.109375 194.121094 158.785156 196.609375 163.75 197.488281 C 167.046875 198.074219 170.410156 197.988281 173.699219 197.414062 C 177.566406 196.730469 181.304688 195.605469 184.875 193.964844 C 185.582031 193.640625 186.289062 193.3125 186.988281 192.972656 C 187.007812 192.964844 187.007812 192.96875 186.992188 192.976562 C 183.625 195.347656 179.605469 197.292969 175.644531 198.328125 C 174.34375 198.667969 172.878906 198.917969 171.242188 199.074219 C 169.324219 199.257812 167.484375 199.273438 165.730469 199.117188 C 159.585938 198.574219 153.71875 195.863281 149.8125 191.007812 C 147.222656 187.785156 145.765625 184.113281 145.453125 179.992188 C 145.390625 179.210938 145.386719 178.300781 145.441406 177.484375 C 146.144531 166.890625 154.894531 159.003906 165.324219 158.519531 C 172.273438 158.195312 179.167969 161.292969 183.320312 166.863281 C 186.199219 170.726562 187.476562 175.601562 186.347656 180.382812 C 185.847656 182.515625 184.953125 184.453125 183.664062 186.199219 C 179.132812 192.351562 170.789062 195.089844 163.617188 192.242188 C 157.851562 189.953125 153.390625 184.066406 154.441406 177.617188 C 155.273438 172.5 159.8125 168.144531 164.921875 167.429688 C 169.257812 166.824219 173.28125 168.96875 175.335938 172.800781 C 176.171875 174.363281 176.617188 176.179688 176.488281 177.949219 C 176.171875 182.21875 172.945312 185.375 168.738281 185.882812 C 164.980469 186.332031 160.6875 184.226562 160.070312 180.160156 C 159.753906 178.070312 160.625 176.015625 162.160156 174.667969 C 163.175781 173.773438 164.589844 173.273438 165.953125 173.449219 C 167.3125 173.621094 168.496094 174.464844 169.214844 175.621094 C 169.285156 175.730469 169.335938 175.878906 169.175781 175.9375 C 169.109375 175.957031 169.058594 175.945312 169.011719 175.890625 C 168.550781 175.34375 167.980469 174.894531 167.320312 174.621094 C 163.972656 173.242188 161.0625 176.96875 161.773438 180.0625 C 162.378906 182.695312 164.960938 184.183594 167.53125 184.214844 C 171.59375 184.261719 175.011719 181.167969 174.757812 176.96875 C 174.625 174.8125 173.621094 172.804688 172.050781 171.332031 C 170.671875 170.035156 169.035156 169.289062 167.140625 169.089844 C 166.949219 169.070312 166.617188 169.066406 166.152344 169.074219 C 163.046875 169.148438 160.101562 170.917969 158.210938 173.320312 C 156.484375 175.515625 155.707031 178.253906 156.136719 181.039062 C 156.632812 184.230469 158.617188 187.09375 161.210938 188.960938 C 166.632812 192.867188 173.792969 192.375 179.054688 188.46875 C 182.515625 185.902344 184.832031 181.957031 185.082031 177.644531 C 185.363281 172.742188 182.945312 168.003906 179.226562 164.859375 Z M 179.226562 164.859375 " fill-opacity="1" fill-rule="nonzero"/></g><g fill="#111827" fill-opacity="1"><g transform="translate(104.250546, 212.987036)"><g><path d="M 1.5625 -9.640625 L 4.421875 -1.53125 L 4.546875 -1.53125 L 7.40625 -9.640625 L 8.625 -9.640625 L 5.09375 0 L 3.875 0 L 0.34375 -9.640625 Z M 1.5625 -9.640625 "/></g></g></g><g fill="#111827" fill-opacity="1"><g transform="translate(123.834672, 212.987036)"><g><path d="M 9.3125 -4.828125 C 9.3125 -3.804688 9.125 -2.925781 8.75 -2.1875 C 8.382812 -1.445312 7.878906 -0.875 7.234375 -0.46875 C 6.597656 -0.0703125 5.867188 0.125 5.046875 0.125 C 4.222656 0.125 3.488281 -0.0703125 2.84375 -0.46875 C 2.207031 -0.875 1.707031 -1.445312 1.34375 -2.1875 C 0.976562 -2.925781 0.796875 -3.804688 0.796875 -4.828125 C 0.796875 -5.835938 0.976562 -6.710938 1.34375 -7.453125 C 1.707031 -8.203125 2.207031 -8.773438 2.84375 -9.171875 C 3.488281 -9.578125 4.222656 -9.78125 5.046875 -9.78125 C 5.867188 -9.78125 6.597656 -9.578125 7.234375 -9.171875 C 7.878906 -8.773438 8.382812 -8.203125 8.75 -7.453125 C 9.125 -6.710938 9.3125 -5.835938 9.3125 -4.828125 Z M 8.171875 -4.828125 C 8.171875 -5.660156 8.03125 -6.363281 7.75 -6.9375 C 7.476562 -7.507812 7.101562 -7.941406 6.625 -8.234375 C 6.15625 -8.535156 5.628906 -8.6875 5.046875 -8.6875 C 4.460938 -8.6875 3.929688 -8.535156 3.453125 -8.234375 C 2.984375 -7.941406 2.609375 -7.507812 2.328125 -6.9375 C 2.054688 -6.363281 1.921875 -5.660156 1.921875 -4.828125 C 1.921875 -3.992188 2.054688 -3.285156 2.328125 -2.703125 C 2.609375 -2.128906 2.984375 -1.695312 3.453125 -1.40625 C 3.929688 -1.113281 4.460938 -0.96875 5.046875 -0.96875 C 5.628906 -0.96875 6.15625 -1.113281 6.625 -1.40625 C 7.101562 -1.695312 7.476562 -2.128906 7.75 -2.703125 C 8.03125 -3.285156 8.171875 -3.992188 8.171875 -4.828125 Z M 8.171875 -4.828125 "/></g></g></g><g fill="#111827" fill-opacity="1"><g transform="translate(144.549405, 212.987036)"><g><path d="M 1.171875 0 L 1.171875 -9.640625 L 4.421875 -9.640625 C 5.179688 -9.640625 5.800781 -9.507812 6.28125 -9.25 C 6.769531 -9 7.128906 -8.648438 7.359375 -8.203125 C 7.585938 -7.765625 7.703125 -7.257812 7.703125 -6.6875 C 7.703125 -6.050781 7.554688 -5.492188 7.265625 -5.015625 C 6.972656 -4.535156 6.519531 -4.191406 5.90625 -3.984375 L 8.078125 0 L 6.734375 0 L 4.6875 -3.78125 C 4.613281 -3.769531 4.535156 -3.765625 4.453125 -3.765625 L 2.34375 -3.765625 L 2.34375 0 Z M 2.34375 -4.828125 L 4.40625 -4.828125 C 5.175781 -4.828125 5.726562 -4.992188 6.0625 -5.328125 C 6.394531 -5.660156 6.5625 -6.113281 6.5625 -6.6875 C 6.5625 -7.269531 6.394531 -7.734375 6.0625 -8.078125 C 5.726562 -8.429688 5.171875 -8.609375 4.390625 -8.609375 L 2.34375 -8.609375 Z M 2.34375 -4.828125 "/></g></g></g><g fill="#111827" fill-opacity="1"><g transform="translate(163.643599, 212.987036)"><g><path d="M 0.640625 -8.609375 L 0.640625 -9.640625 L 7.875 -9.640625 L 7.875 -8.609375 L 4.84375 -8.609375 L 4.84375 0 L 3.671875 0 L 3.671875 -8.609375 Z M 0.640625 -8.609375 "/></g></g></g><g fill="#111827" fill-opacity="1"><g transform="translate(182.775476, 212.987036)"><g><path d="M 1.171875 0 L 1.171875 -9.640625 L 6.984375 -9.640625 L 6.984375 -8.609375 L 2.34375 -8.609375 L 2.34375 -5.359375 L 6.6875 -5.359375 L 6.6875 -4.3125 L 2.34375 -4.3125 L 2.34375 -1.03125 L 7.0625 -1.03125 L 7.0625 0 Z M 1.171875 0 "/></g></g></g><g fill="#111827" fill-opacity="1"><g transform="translate(201.323218, 212.987036)"><g><path d="M 1.734375 -9.640625 L 4.21875 -5.640625 L 4.296875 -5.640625 L 6.78125 -9.640625 L 8.15625 -9.640625 L 5.125 -4.828125 L 8.15625 0 L 6.78125 0 L 4.296875 -3.9375 L 4.21875 -3.9375 L 1.734375 0 L 0.359375 0 L 3.46875 -4.828125 L 0.359375 -9.640625 Z M 1.734375 -9.640625 "/></g></g></g></svg>